<svg xmlns="http://www.w3.org/2000/svg" xmlns:xlink="http://www.w3.org/1999/xlink" viewBox="0 0 83.937 150">
  <defs>
    <style>
      .cls-1, .cls-13, .cls-14, .cls-2, .cls-3, .cls-4 {
        fill-rule: evenodd;
      }

      .cls-2 {
        fill: #d2ab67;
      }

      .cls-3 {
        fill: #ed1c24;
      }

      .cls-4 {
        fill: #0066b3;
      }

      .cls-5 {
        clip-path: url(#clip-path);
      }

      .cls-6 {
        fill: url(#linear-gradient);
      }

      .cls-7 {
        clip-path: url(#clip-path-2);
      }

      .cls-8 {
        fill: url(#linear-gradient-2);
      }

      .cls-9 {
        clip-path: url(#clip-path-3);
      }

      .cls-10 {
        fill: url(#linear-gradient-3);
      }

      .cls-11 {
        clip-path: url(#clip-path-4);
      }

      .cls-12 {
        fill: url(#linear-gradient-4);
      }

      .cls-13 {
        fill: #7a7b6f;
      }

      .cls-14, .cls-15 {
        fill: #fff;
      }
    </style>
    <clipPath id="clip-path">
      <path id="Path_155" data-name="Path 155" d="M78.483,160.169a.85.85,0,0,1,0,.1c0-.034,0-.068.006-.1,0,0,0,0,0,0m31.374-7.633v-.012h-.006s0,.006.006.012m-.019-.012h.012c0-.006-.009-.012-.012-.019ZM84.167,151.3c-.18.037-.378.093-.558.149a25.871,25.871,0,0,0-3.251,1.01,23.183,23.183,0,0,0-1.869,7.713c6.207-2.086,14.761-3.651,21.461-2.705,3.347.282,8.863,1.977,11.724,2.848a16.509,16.509,0,0,0-1.813-7.772v.009a64.96,64.96,0,0,0-9.024-2c-.2-.025-.375-.087-.573-.112-.772-.093-1.522-.189-2.3-.242-.654-.071-1.286-.065-1.94-.1-.549-.025-1.1-.037-1.649-.037A44.61,44.61,0,0,0,84.167,151.3" transform="translate(-78.48 -150.06)"/>
    </clipPath>
    <linearGradient id="linear-gradient" x1="-2.262" y1="13.394" x2="-2.253" y2="13.394" gradientUnits="objectBoundingBox">
      <stop offset="0" stop-color="#fff"/>
      <stop offset="1" stop-color="#fff"/>
    </linearGradient>
    <clipPath id="clip-path-2">
      <path id="Path_161" data-name="Path 161" d="M82.656,199.168l-2,.518a55.228,55.228,0,0,0,2.157,6.737c9.368-3.613,18.421-3.18,27.6.214a44.764,44.764,0,0,0,1.909-6.613c-.236-.124-.493-.229-.747-.335-1.2-.4-2.581-.809-3.747-1.091A52.5,52.5,0,0,0,95.96,197.07a47.109,47.109,0,0,0-13.3,2.1" transform="translate(-80.66 -197.07)"/>
    </clipPath>
    <linearGradient id="linear-gradient-2" x1="-2.395" y1="12.957" x2="-2.385" y2="12.957" xlink:href="#linear-gradient"/>
    <clipPath id="clip-path-3">
      <path id="Path_168" data-name="Path 168" d="M104.753,241.6c-3.31.015-6.282.914-9.533,1.81a62.816,62.816,0,0,1,1.6,6.765,29.032,29.032,0,0,1,14.851-1.051c1.677.391,3.142.558,4.8,1.088.676-2.2,1.3-4.8,1.794-6.84a41.28,41.28,0,0,0-11.6-1.838c-.642,0-1.28.019-1.906.065" transform="translate(-95.22 -241.53)"/>
    </clipPath>
    <linearGradient id="linear-gradient-3" x1="-3.476" y1="13.153" x2="-3.462" y2="13.153" xlink:href="#linear-gradient"/>
    <clipPath id="clip-path-4">
      <path id="Path_173" data-name="Path 173" d="M106.369,287.347c-.019-.022-.019-.04-.037-.059a.022.022,0,0,0-.022.019,3.622,3.622,0,0,0,.186.455c.155.329.645,1.5.781,1.7a8.431,8.431,0,0,0,14.912-1.113c.084-.211.288-.666.353-.883a26.334,26.334,0,0,0-8.674-1.432,19.356,19.356,0,0,0-7.5,1.317" transform="translate(-106.31 -286.03)"/>
    </clipPath>
    <linearGradient id="linear-gradient-4" x1="-5.127" y1="13.845" x2="-5.108" y2="13.845" xlink:href="#linear-gradient"/>
  </defs>
  <g id="grb-footer" transform="translate(0.02 -0.036)">
    <path id="Path_110" data-name="Path 110" class="cls-1" d="M54.071.7a1.281,1.281,0,0,1-.257.967c-.081.037-.022.139-.043.2.285.58.58-.186.955-.139a.975.975,0,0,1,1.038.676.961.961,0,0,1-.2,1.007,1.105,1.105,0,0,1-1.2.294c-.136-.043-.232-.2-.412-.167-.242.174-.121.118-.127.415A4.058,4.058,0,0,1,53.752,5.9a2.464,2.464,0,0,1,1.5,2.625.721.721,0,0,1-.226.431l.539-.149a1.869,1.869,0,0,1,1.162.44,1.405,1.405,0,0,1,.127,1.608.956.956,0,0,1-.8.462c-.257.034-.493-.149-.728-.232a2.142,2.142,0,0,0,1.218,1.59,2.858,2.858,0,0,0,2.563-.267,4.324,4.324,0,0,0,1.605-4.134c2.569,2.489,6.465,1.035,9.449.5a5.483,5.483,0,0,1,5.4,2.919,6.189,6.189,0,0,0,.366.623,5.258,5.258,0,0,1,1.661.189,5.8,5.8,0,0,1,3.982,3.207,5.061,5.061,0,0,1-.022,4.283,4.334,4.334,0,0,1-3.75,2.11,1.314,1.314,0,0,1,.248,1.571,1.259,1.259,0,0,1-1.221.651,4.2,4.2,0,0,1-.632-.17,6.362,6.362,0,0,0-1.289,2.117,1.007,1.007,0,0,1,.2,1.215c-.263.232-.62.2-.9.341a9.616,9.616,0,0,0-.995,2.182c.412.285.322.84.254,1.255-.976,1.329-2.832,1.85-4.066,2.182-1.237.313-2.045.121-2.786.542a4.161,4.161,0,0,1-.576,1.038,2.765,2.765,0,0,1-3.781.682c-.254-.263-1.385-.186-1.9-.214a2.617,2.617,0,0,0,.849,1.264,5.187,5.187,0,0,0,4.772,1.3,6.768,6.768,0,0,0,4.122-3.053c.449.384,1.1.338,1.655.487-.226.493-.4,1.023-.6,1.457a6.955,6.955,0,0,0-.437,1.1c.074,1.311-.251,2.712.5,3.855,4.379-4.952,8.324-10.211,13.946-14.8-2.275,4.952-7.3,11.6-11.231,16.995.626.487,1.68.288,2.355.3,2.222-.136,4.308-2.256,4.98-4.286l.155.26c.223,1.847.4,3.874-.322,5.467,3.75.865,6.864,4.89,7.292,8.547.958,4.937-1.007,9.161-3.617,12.9-1.791,2.464-4.642,4.274-6.238,6.88-.973,1.19-2.014,4.72-2.225,5.429-.344-1.773-1.342-3.378-1.023-5.55l-.322.332c-1.289,1.066-3.3,2.733-4.094,4.54a5.742,5.742,0,0,0-.7,1.453,4.691,4.691,0,0,0,.242,3.97,2.368,2.368,0,0,0,2.6,1.082,1.806,1.806,0,0,0,.886-.657c-.1-.2-.279.034-.456-.009a2.414,2.414,0,0,1-2.33-1.453c-.384-.583-.056-1.171-.065-1.785a3.34,3.34,0,0,1,1.218-1.385c1.147-.849,2.64-.127,3.657.505a4.317,4.317,0,0,1,1.463,4.391,6.128,6.128,0,0,1-.375,1,5.848,5.848,0,0,1-3.44,2.631,15.219,15.219,0,0,1,1.038,2.678c-.316.034-.629-.31-.964-.375a6.249,6.249,0,0,0-4.965.322,1.983,1.983,0,0,1,1.23.976c.071.477.26.877.015,1.329a3.43,3.43,0,0,1,2.451.363c3.257,1.866,2.439,6.214,5.835,7.943a1.963,1.963,0,0,0,2.1-.059c.143-.276.428-.567.434-.824.3.8-.226,1.481-.676,2.07a4.856,4.856,0,0,1-1.739.741A6.839,6.839,0,0,1,79.3,105.2c-.133.812.886.254,1.274.818a1.41,1.41,0,0,1,.236,1.215,1.149,1.149,0,0,1-.747.759,1.39,1.39,0,0,1-1.243-.282c-.49-.347-.341-.858-.291-1.314-.731-.152-1.329-1.016-1.813-1.562a3.855,3.855,0,0,1-1.364,1.878,2.932,2.932,0,0,1-1.611.267,2.3,2.3,0,0,0,1.342-1.8c-.164-2.8-3.015-3.982-4.934-5.408l-.387-.425c-1.007-1.209-2.126-2.836-1.323-4.407-.2-.2-.555-.05-.769-.174a2.226,2.226,0,0,1-1.125-1.311c-.421.189-.471.744-.657,1.119-.31,1.68-.787,3.83.474,5.284a2.13,2.13,0,0,0-1.292,1.184,3.344,3.344,0,0,0-3.251-1.113,4.368,4.368,0,0,0-3.133,3.111.62.62,0,0,0-.009.536c2.017.316,4.435-1.739,5.777.666a2.674,2.674,0,0,1-.325,2.55c-1.466,2.055-4.091,1.329-6.046.936l-.533-.167a8.334,8.334,0,0,1-2.665-1.618l-.332.827c2.241.976,2.479,4.032,4.915,4.317-1.187.908-2.526,1.5-3.567.924a1.962,1.962,0,0,1-.493-.189c-.245.372-.614.9-.775,1.156a8.21,8.21,0,0,0-1.364,2.829l-.1,0c-.406-1.534-1.717-2.532-2.383-3.933a3.4,3.4,0,0,1-3.753-.707l-.192-.26c2.752.27,2.665-3.477,5.036-4.069-.2-.22-.2-.8-.564-.645a8.5,8.5,0,0,1-7.487,1.621,3.085,3.085,0,0,1-2.138-2.281,2.625,2.625,0,0,1,.39-1.757A1.97,1.97,0,0,1,43.188,103a7.391,7.391,0,0,1,3.068.276c.474.108.948.2,1.382.263a4.072,4.072,0,0,0-2.194-3.452c-1.159-.5-2.826-.549-3.657.505l-.062.059a6.115,6.115,0,0,0-1.655-.626A7.752,7.752,0,0,0,40,93.463c-.319.074-.545.505-.747.719a24.249,24.249,0,0,0-2.315,2.91l.273.223-.549.623c.97,1.109,2.919,1.9,2.547,3.7-.186.394-.434.883-.911.973a1.313,1.313,0,0,1-1.181-.459,1.264,1.264,0,0,1-.192-1.292c.022-.118.161-.2.263-.313-.421-.722-1.23-1.035-1.853-1.543-1.528,2.132-2.86,4.506-5.017,6.21a2.692,2.692,0,0,1-1.156.294c-.028.474.081.954-.282,1.342a1.568,1.568,0,0,1-1.574.406c-.313-.223-.725-.409-.858-.809a1.575,1.575,0,0,1,.065-1.308,1.311,1.311,0,0,1,1.32-.549c-.139-2.005,1.652-3.4,2.693-5l2.188-2.417c-1.147-1.171-3.235-1.906-3.418-3.753a1.239,1.239,0,0,1,.917-1.292,1.558,1.558,0,0,1,1.184.22c.468.347.378.939.291,1.413,0,.158-.363.232-.167.434l1.838,1.283c.26-.155.576-1.06.92-.4,1.054-1.249,2.092-2.616,3.149-3.9a5.262,5.262,0,0,0-5.157.059c-.1.077-.183.2-.319.152a7.311,7.311,0,0,1,.725-2.7l-.666-.332a5.036,5.036,0,0,1-2.86-3.8,4.259,4.259,0,0,1,1.382-3.84,3.57,3.57,0,0,1,3.44-.567,2.314,2.314,0,0,1,1.364,2.327A2.039,2.039,0,0,1,33.9,84.755a2.1,2.1,0,0,1-1.426-.105,2.191,2.191,0,0,0,2.4.741,2.912,2.912,0,0,0,1.807-2.166c.518-2.132-.576-4.016-1.918-5.448a21.755,21.755,0,0,0-3.347-3.257l-.1.1c-.056,1.844-.995,3.313-1.128,5.095-.369-4.568-4.41-7.856-7.521-11.029l.062-.077c-6.406-6.17-7.766-17.934,1.838-22.53.279-.115.58-.226.778-.3l-.077-.139a7.221,7.221,0,0,1-.081-5.116c.245,1.729,2.061,3.211,3.573,3.877a6.65,6.65,0,0,0,4.122.081c-.288-.4-.877-.731-1.026-1.267a1.482,1.482,0,0,1,.062-1.128,1.627,1.627,0,0,1-.657.105,3.666,3.666,0,0,1-3.4-1.828c-1.243-2.442-1.9-5.312-4.627-6.812A2.474,2.474,0,0,0,21.2,33.7a1.577,1.577,0,0,0-.533.821c-.152-.319.056-.753.18-1.147a2.909,2.909,0,0,1,2.334-1.76,1.871,1.871,0,0,1-.638-.824c-.136-.1-.152-.341-.229-.421-.056-.139.025-.276.028-.4a1.568,1.568,0,0,1-1.323-.322,1.321,1.321,0,0,1-.372-1.277,1.242,1.242,0,0,1,.57-.821,1.591,1.591,0,0,1,1.407.006,1.367,1.367,0,0,1,.555,1.082,3.8,3.8,0,0,1-.152.691c.459-.211,1.388,1.038,1.422,1.237.493-.9,1.528-2.092,2.6-2.07.18-.037.294.084.452.108a1.566,1.566,0,0,0-1.047.834,2.6,2.6,0,0,0,.267,2.721c2.1,2.994,8.212,3.982,6.595,8.612a1.863,1.863,0,0,1,1.788.868,1.923,1.923,0,0,1,.2.855,7.724,7.724,0,0,0,.477-4.193,11.463,11.463,0,0,0-1.416-2.684l-.118-.143a3.054,3.054,0,0,0,2-.657,7.042,7.042,0,0,0,5.625,3.359,4.592,4.592,0,0,0,4.274-2.693l0-.1c-2,0-4.906,1.395-6.124-1.168l-.155-.242a21.5,21.5,0,0,1-5.919-1.522,1.66,1.66,0,0,1-1.221-1.432c-.012-.477.313-.806.477-1.2-.487-.505-.344-1.791-1.317-1.593a.884.884,0,0,1-.765-.49,1.4,1.4,0,0,1,.341-1.184,21.049,21.049,0,0,0-1.422-2.268,1.9,1.9,0,0,1-1.422-.226,1.22,1.22,0,0,1-.409-1.395.624.624,0,0,1,.263-.372,4.853,4.853,0,0,1-1.187-.084,4.017,4.017,0,0,1-1.847-.827c-1.447-1-1.649-3.025-1.3-4.745.378-2.114,2.668-3.675,4.618-4.115.536-.108,1.075-.217,1.611-.285A5.621,5.621,0,0,1,33.4,9.164c3.672-1.3,6.886,1.717,10.428.1a6.614,6.614,0,0,0,1.419-.688,4.175,4.175,0,0,0,1.813,3.762,2.745,2.745,0,0,0,2.975.019,2.323,2.323,0,0,0,.7-1.274,1.063,1.063,0,0,1-1.525-.127,1.338,1.338,0,0,1-.155-1.233,1.222,1.222,0,0,1,.989-.852c.316.025.694-.087.948.118a2.361,2.361,0,0,1,.2-2.179,3.109,3.109,0,0,1,1.109-.93,6.043,6.043,0,0,1,.084-2.237c-.35-.384-.635.087-1.131.077-.573-.012-.765-.431-.917-.831a1.081,1.081,0,0,1,.676-1.1A.633.633,0,0,1,51.7,1.8c.177.1.449.307.511.208L52.5,1.76c-.449-.267-.381-.8-.294-1.175a.88.88,0,0,1,.744-.521A.921.921,0,0,1,54.071.7" transform="translate(-12.193 0)"/>
    <path id="Path_111" data-name="Path 111" class="cls-2" d="M156.856,32.053a5.136,5.136,0,0,1-.2,5.014,4.523,4.523,0,0,1-3.006,1.726,5.573,5.573,0,0,1-1.525-.189,3.753,3.753,0,0,0,3.521-5.783c-1.016-1.8-3.229-2.185-5.216-1.943a11.425,11.425,0,0,1-6.009.043c-1.168,1.921-2.932,4.047-5.4,3.623a3.873,3.873,0,0,1-2.69-2.352,2.213,2.213,0,0,1,.44-2.231c.143-.254.521-.267.778-.242a.992.992,0,0,1,.88.632c.034.3.043.753-.254.846a.69.69,0,0,1-.852.025c-.276-.124-.273-.3-.428-.524a2.477,2.477,0,0,0,1.119,2.718,3.189,3.189,0,0,0,3.6-.446,5.463,5.463,0,0,0,1.664-3.04,2.708,2.708,0,0,0,1.32.381c.471.267,1.128.161,1.658.328a21.971,21.971,0,0,0,4.655-.883c1.689-.164,3.533-.13,4.819.924a6.335,6.335,0,0,1,1.125,1.373" transform="translate(-94.031 -20.459)"/>
    <path id="Path_112" data-name="Path 112" class="cls-2" d="M79.875,30.761a2.841,2.841,0,0,1-.586,2.606,3.787,3.787,0,0,1-3.827,1.016c-1.655-.508-2.464-1.813-3.328-3.235-1.949,1.351-3.694.325-5.377.2-1.794-.431-4.456-.2-5.55,1a3.531,3.531,0,0,0,2.024,6.164,2.5,2.5,0,0,0,.772.056,4.022,4.022,0,0,1-3.638-.487,7.193,7.193,0,0,1-.756-.827,4.648,4.648,0,0,1-.595-1.041,3.85,3.85,0,0,1-.254-1.292,4.153,4.153,0,0,1,.353-1.937,8.034,8.034,0,0,1,2.671-2.746,6.318,6.318,0,0,1,3.08-.356c1.283.282,2.647.607,3.83.827l.158.043a7.086,7.086,0,0,0,4.2-.812l.009.576a4.315,4.315,0,0,0,2.991,3.189,2.806,2.806,0,0,0,2.991-.914,1.96,1.96,0,0,0,.2-2.157c-.065.316-.093.654-.452.765a1.66,1.66,0,0,1-.635.009.721.721,0,0,1-.4-.88c.025-.217.186-.313.186-.372.164-.294.521-.347.9-.341.4.161.945.468,1.035.945" transform="translate(-40.559 -20.55)"/>
    <path id="Path_113" data-name="Path 113" class="cls-3" d="M87.064,32.437a3.442,3.442,0,0,0,1.509,3.954,4.6,4.6,0,0,0,4.7.09,9.97,9.97,0,0,0,2.448-2.47c.381-.192.809.2,1.209.084,3.022.654,6.226-2.061,8.733.545a3.144,3.144,0,0,1,.632,3.285,2.953,2.953,0,0,1-2.135,1.782,4.275,4.275,0,0,1-3.57-1.041,3.855,3.855,0,0,0,2.262,2.005c.118.062.217.084.177.1a1.345,1.345,0,0,0-.5.248,1.131,1.131,0,0,0-.381,1.243,1.652,1.652,0,0,0,.44.781,1.1,1.1,0,0,1-.223.313,4.928,4.928,0,0,1-3.046,1.686,3.611,3.611,0,0,1-2.845-1.621,6.71,6.71,0,0,1-.728-2.433,1.477,1.477,0,0,0,.97-.874,1.449,1.449,0,0,0-.288-1.453,1.491,1.491,0,0,0-1.6-.27,1.451,1.451,0,0,0-.651,1.872,1.72,1.72,0,0,0,.623.626l-.105.257a5.073,5.073,0,0,1-3.223,2.693,4.38,4.38,0,0,1-4.85-3.424l-.015-.239c.034.3.586.468.762.611a2.067,2.067,0,0,0,1.354-.273,1.822,1.822,0,0,0,.61-1.813,1.793,1.793,0,0,0-1.766-1.026l-.022.04a1.781,1.781,0,0,0-.183-1.828,1.609,1.609,0,0,0-1.2-.6,1.819,1.819,0,0,0-1.605,1.041,2.078,2.078,0,0,0,.208,1.491,1.751,1.751,0,0,0-1.116.236,1.559,1.559,0,0,0,.3,2.8,1.423,1.423,0,0,0,1.717-.682,4.354,4.354,0,0,1-.558,1.24C84.43,42.456,83.014,44,81.291,43.9a4.559,4.559,0,0,1-3.985-3.009,1.5,1.5,0,0,0,.855-1.274,1.415,1.415,0,0,0-.769-1.243,1.442,1.442,0,0,0-1.67.167,1.227,1.227,0,0,0-.456,1.1,1.761,1.761,0,0,0,.827,1.246.954.954,0,0,1,.257.105A5.462,5.462,0,0,1,74.42,44.57a3.722,3.722,0,0,1-3.759-.35,5.988,5.988,0,0,1-1.187-1.153,1.613,1.613,0,0,0,.567-1.655c-.174-.26-.325-.642-.66-.707a5.349,5.349,0,0,0,1.8-1.729c-.316-.046-.6.366-.942.518a4.053,4.053,0,0,1-3.545-.186A2.69,2.69,0,0,1,65.421,37.3a3.24,3.24,0,0,1,1.509-3.2c3.062-1.546,6.086,1.047,9.2-.18,1.429,1.949,3.465,3.4,5.931,2.969a3.7,3.7,0,0,0,2.693-1.971,3.44,3.44,0,0,0,.167-2.513,2.229,2.229,0,0,0,2.138.037" transform="translate(-45.149 -22.335)"/>
    <path id="Path_114" data-name="Path 114" class="cls-2" d="M207.324,41.088a6.592,6.592,0,0,1,2.687,1.46l.155.161a5.35,5.35,0,0,1,1.206,2.284,4.267,4.267,0,0,1-.645,3.595c-.731.858-3.35,2-4.162.951a3.722,3.722,0,0,0,3.384-1.7,4.238,4.238,0,0,0,.322-2.352,2.461,2.461,0,0,0-.552-1.28,4.92,4.92,0,0,0-2.91-2.278c-.375-.068-.812-.056-.809-.2a3.54,3.54,0,0,0-.161-.837,5.925,5.925,0,0,1,1.484.189" transform="translate(-142.064 -28.199)"/>
    <path id="Path_115" data-name="Path 115" class="cls-2" d="M44.718,42.039a4.564,4.564,0,0,0-3.985,3.037,4.482,4.482,0,0,0,.158,3.115A3.539,3.539,0,0,0,43.454,50a3.413,3.413,0,0,0,1.19-.015,3.722,3.722,0,0,1-3.744-.17,4.16,4.16,0,0,1-1.522-4.472c.273-1.838,1.943-3.1,3.52-3.679a11.049,11.049,0,0,1,2.03-.4Z" transform="translate(-27.095 -28.456)"/>
    <path id="Path_116" data-name="Path 116" class="cls-3" d="M196.832,48.286a4.372,4.372,0,0,1-.108,2.616,3.306,3.306,0,0,1-2.625,1.515,3.84,3.84,0,0,1-1.751-.669c.022.874,1.088,1.212,1.674,1.6a1.309,1.309,0,0,0-1.106.871c-.127.434.143.837.136,1.193a3.933,3.933,0,0,1-3.465.787c-.985-.276-1.481-1.376-1.76-2.253a3.145,3.145,0,0,1,.108-1.484,1.363,1.363,0,0,0,1.206-.75,1.279,1.279,0,0,0-.229-1.432,5.215,5.215,0,0,0,4.5-3.145,4.351,4.351,0,0,0,.226-1.463,4.29,4.29,0,0,1,3.192,2.616" transform="translate(-129.606 -31.492)"/>
    <path id="Path_117" data-name="Path 117" class="cls-3" d="M49.184,45.825a5.033,5.033,0,0,0,2.916,4,4.721,4.721,0,0,0,1.878.294A1.526,1.526,0,0,0,53.87,51.7a1.306,1.306,0,0,0,1.317.641,3.863,3.863,0,0,1-.995,3.273,3.547,3.547,0,0,1-3.651.09,1.661,1.661,0,0,1-.626-.428,1.46,1.46,0,0,0-.573-2.21c.542-.387,1.264-.787,1.376-1.382a3.5,3.5,0,0,1-2.987.617,3.08,3.08,0,0,1-1.7-1.441,3.968,3.968,0,0,1,.654-4.054,4.476,4.476,0,0,1,2.482-1.32Z" transform="translate(-31.58 -31.368)"/>
    <path id="Path_118" data-name="Path 118" class="cls-2" d="M127.081,57.848A6.74,6.74,0,0,0,128.24,59.5a2.963,2.963,0,0,0,1,.694,44.1,44.1,0,0,0-4.878-.053,7.738,7.738,0,0,0,1.844-1.986,4.256,4.256,0,0,0,.555-2.011,5.546,5.546,0,0,0,.322,1.708" transform="translate(-85.834 -38.717)"/>
    <path id="Path_119" data-name="Path 119" class="cls-2" d="M157.135,63.8c-.037-.059-3.917-.471-4.255-.5a5.4,5.4,0,0,0,2.076-1.844,4.24,4.24,0,0,0,.638-1.178c.217,1.175.344,2.8,1.54,3.52" transform="translate(-105.516 -41.574)"/>
    <path id="Path_120" data-name="Path 120" class="cls-2" d="M100.653,62.641l-.059.037c.332.263.784.511,1.156.756-.341.152-.973.062-1.413.229a12.489,12.489,0,0,0-2.247.313c.325-.449.6-1.078.9-1.59.17-.57.341-1.184.49-1.717a4.162,4.162,0,0,0,1.171,1.971" transform="translate(-67.706 -41.844)"/>
    <path id="Path_121" data-name="Path 121" class="cls-2" d="M180.993,71.086c-.552-.229-1.023-.437-1.633-.666a8.969,8.969,0,0,0-1.68-.369,6.937,6.937,0,0,0,2.309-1.463,2.11,2.11,0,0,0,.369-.549,4.418,4.418,0,0,0,.635,3.046" transform="translate(-122.63 -46.93)"/>
    <path id="Path_122" data-name="Path 122" class="cls-2" d="M79.036,70.144a16.258,16.258,0,0,0-2.616.883,4.42,4.42,0,0,0,.409-2.687,4.676,4.676,0,0,0,2.207,1.8" transform="translate(-52.751 -47.137)"/>
    <path id="Path_123" data-name="Path 123" class="cls-2" d="M91.266,71.984a29.173,29.173,0,0,1,3.9.372c.276.043.79.133.989.177a17.958,17.958,0,0,1,2.132.477c1.184.279,7.252,2.3,7.493,3.235a.336.336,0,0,1-.521.267,19.314,19.314,0,0,0-4.246-1.965c-1.261-.4-2.563-.722-3.688-1.082-.217-.043-.415-.087-.713-.133a73.045,73.045,0,0,0-11.953-1.181,67.971,67.971,0,0,0-12.3,1.171c-.319.053-1.075.257-1.233.294a26.683,26.683,0,0,0-5.848,2.008c-.418.189-2.207,1.426-2.2,1.227-.254-.242-.27-.381-.05-.518,2.882-2.482,7.484-3.623,11.3-4.125a6.8,6.8,0,0,1,1.054-.18c3.158-.3,5.86-.521,9.071-.561,2.315.251,4.6.115,6.812.514" transform="translate(-43.403 -49.297)"/>
    <path id="Path_124" data-name="Path 124" class="cls-2" d="M144.258,75.846a2.28,2.28,0,0,1-1.785,1.075,4.047,4.047,0,0,1,1.5,1.218c-1.785-.016-3.781-.332-5.8-.27a1.318,1.318,0,0,0,.6-1.258,1.626,1.626,0,0,0-.71-1.243c2.145-.015,4.078.319,6.2.477" transform="translate(-95.289 -51.987)"/>
    <path id="Path_125" data-name="Path 125" class="cls-2" d="M112,75.4a1.54,1.54,0,0,0-.778,1.274,1.361,1.361,0,0,0,.672,1.184l-.573-.012c-1.15,0-2.442.13-3.551.189a9.705,9.705,0,0,1-1.748.087,4.989,4.989,0,0,1,1.193-1.206c-.607-.35-1.14-.437-1.546-1.082,2.005-.239,4.286-.294,6.331-.434" transform="translate(-72.936 -52.009)"/>
    <path id="Path_126" data-name="Path 126" class="cls-2" d="M160.888,77.207a17.645,17.645,0,0,1,3.455.722,3.705,3.705,0,0,1,.769.192,1.3,1.3,0,0,0-.951.933,1.246,1.246,0,0,0,.2,1.134,18.31,18.31,0,0,0-2.21-.518c-.177-.025-.474-.05-.651-.093-.731-.112-1.6-.27-2.176-.3A2.434,2.434,0,0,1,161.1,78.4a2.929,2.929,0,0,1-1.1-.635,2.83,2.83,0,0,1-.539-.824c.158.043,1.007.18,1.422.267" transform="translate(-109.96 -53.071)"/>
    <path id="Path_127" data-name="Path 127" class="cls-4" d="M157.128,78.959c-.456.012-1.1.672-1.206.772a2.78,2.78,0,0,0-1.072-.992,2.056,2.056,0,0,0,1.246-.849,2.029,2.029,0,0,0,1.032,1.069" transform="translate(-106.876 -53.727)"/>
    <path id="Path_128" data-name="Path 128" class="cls-4" d="M104,78.524a3.511,3.511,0,0,0-1.035,1.171,2.971,2.971,0,0,0-1.175-.874,2.384,2.384,0,0,0,.995-1.131,1.7,1.7,0,0,0,1.215.834" transform="translate(-70.259 -53.589)"/>
    <path id="Path_129" data-name="Path 129" class="cls-2" d="M187.088,83.991l.2.2a4.765,4.765,0,0,1-2.123.118,7.2,7.2,0,0,1,.942,1.624,21.442,21.442,0,0,0-3.753-1.7c.319-.192.425-.369.611-.9a1.419,1.419,0,0,0-.313-1.274,21.415,21.415,0,0,1,4.441,1.931" transform="translate(-125.853 -56.605)"/>
    <path id="Path_130" data-name="Path 130" class="cls-2" d="M62.661,80.462c-.421.27-.725.62-1.066.834l-.9-1.385c.651.17,1.4.443,1.971.552" transform="translate(-41.896 -55.121)"/>
    <path id="Path_131" data-name="Path 131" class="cls-2" d="M197.65,79.472a11.445,11.445,0,0,1,1.255.778l.92-1.55a4.222,4.222,0,0,1-2.176.772" transform="translate(-136.412 -54.286)"/>
    <path id="Path_132" data-name="Path 132" class="cls-2" d="M70.635,82.15a1.564,1.564,0,0,0-.344,1.4,1.412,1.412,0,0,0,.741.688,12.091,12.091,0,0,0-3.542,1.636l-.2.155a3.348,3.348,0,0,1,.642-1.435,7.426,7.426,0,0,1-1.859-.2c1.131-1.088,2.786-1.553,4.246-2.16Z" transform="translate(-45.609 -56.667)"/>
    <path id="Path_133" data-name="Path 133" class="cls-2" d="M101.216,86.338l.474.108c1.952.592,4.181,1.171,5.842,2.532a.965.965,0,0,1,.136,1.153,4.844,4.844,0,0,1-1.766,1.116,12.233,12.233,0,0,1-3.9.9c-.059,0-.18.037-.217-.043a2.694,2.694,0,0,0-.415-2.148c1.078-.375,2.089-.437,3.149-.871a4.58,4.58,0,0,1,1.556.6c.158.084.431.285.229.5l-.685.521c.214.223.518-.031.756-.084a4.569,4.569,0,0,0,.725-.62c-.006-.654-.734-.927-1.165-1.212a27.1,27.1,0,0,0-7.019-2.076,80.483,80.483,0,0,0-11.29-.691l-.1-.081-.1.077c-6.111.2-12.1.263-17.426,2.978a1.633,1.633,0,0,0-.744.6c-.143.136-.183.294-.053.632.251.322.641.666,1.082.536-.214-.242-.747-.35-.462-.8a2.848,2.848,0,0,1,2.767-.682c.493.09,1.934.493,2.448.542-.022.081-.084.136-.1.236a4.655,4.655,0,0,0-.239,2.135,14.273,14.273,0,0,1-6.015-1.661,1.029,1.029,0,0,1-.3-.837,1.325,1.325,0,0,1,.9-1.134c1.06-.536,2.083-1.01,3.161-1.506a15.1,15.1,0,0,1,1.993-.558A64.532,64.532,0,0,1,91.6,85.321a62.209,62.209,0,0,1,9.616,1.016" transform="translate(-47.202 -58.794)"/>
    <path id="Path_134" data-name="Path 134" class="cls-4" d="M194.88,90.09a10.96,10.96,0,0,0-.645,1.515,3.855,3.855,0,0,0-.806-1.4,3.346,3.346,0,0,0,1.45-.112" transform="translate(-133.5 -62.146)"/>
    <path id="Path_135" data-name="Path 135" class="cls-2" d="M197.445,102.5c-1.463,1.8-2.392,3.8-3.988,5.4-.49-.347-1.59-.865-1.677-1.519.487-.6.75-.917,1.178-1.444,3.843-3.992,6.4-8.243,11.039-12.219-1.627,3.279-4.841,7.441-6.551,9.787" transform="translate(-132.361 -63.954)"/>
    <path id="Path_136" data-name="Path 136" class="cls-3" d="M112.969,92.747a6.925,6.925,0,0,1-2.693.781c-3.068-3.449-6.982.084-10.63.115a53.194,53.194,0,0,1-11.274-1.367,4.6,4.6,0,0,0-3.849,1.175c-.948-.136-1.856-.431-2.783-.629,4.611-1.7,9.942-1.515,15.1-1.791,5.451.025,11.119.133,16.127,1.717" transform="translate(-56.422 -62.795)"/>
    <path id="Path_137" data-name="Path 137" class="cls-4" d="M67.866,90.653a4.829,4.829,0,0,0-.518,1.159,4.43,4.43,0,0,1-.589-1.3,2.232,2.232,0,0,0,1.106.143" transform="translate(-46.085 -62.436)"/>
    <path id="Path_138" data-name="Path 138" class="cls-2" d="M33.749,95.653c.015,2.3,2.191,3.57,3.759,4.611a19.544,19.544,0,0,1,2.073,1.506,3.376,3.376,0,0,1,.852,1.007,3.414,3.414,0,0,1,.428,2.606,1.777,1.777,0,0,1-.992,1.113l-.121.037a2.244,2.244,0,0,1-2-.158c-2.563-1.853-2.513-5.4-4.955-7.332a5.082,5.082,0,0,0-1.627-1,2.418,2.418,0,0,0-1.968.18c.418-1.063,1.726-1.137,2.634-.88a6.74,6.74,0,0,1,2.4,1.81l.059-.037a18.406,18.406,0,0,1-1.255-1.788,4.664,4.664,0,0,1,.081-2.1,2.163,2.163,0,0,1,.893-1.035,7.82,7.82,0,0,0-.267,1.463" transform="translate(-20.165 -64.976)"/>
    <path id="Path_139" data-name="Path 139" class="cls-4" d="M159.859,98.459a3.285,3.285,0,0,1-.536,3.124,2.406,2.406,0,0,1-2.25.57A1.921,1.921,0,0,1,155.747,101l-.053-.359a2.22,2.22,0,0,0,.505.545,1.253,1.253,0,0,0,1.426.087,1.009,1.009,0,0,0,.632-.9c.068-.493.019-.951-.827-1.364s-2.433.626-3.669.127a5.145,5.145,0,0,1,1-1.667,3.265,3.265,0,0,1,3.105-.672,4.735,4.735,0,0,1,1.99,1.664" transform="translate(-106.123 -66.697)"/>
    <path id="Path_140" data-name="Path 140" class="cls-4" d="M95.694,97.649c.409.307.663,1.618.734,2.017-1.249-.084-2.913-1.147-3.908.043A1.293,1.293,0,0,0,92.4,101a1.235,1.235,0,0,0,1.137.694,1.059,1.059,0,0,0,1.14-.533,1.4,1.4,0,0,1-.691.958,2.446,2.446,0,0,1-2.783-.629,2.6,2.6,0,0,1-.214-.242,2.758,2.758,0,0,1,2.324-4.3,3.1,3.1,0,0,1,2.383.7" transform="translate(-62.52 -66.876)"/>
    <path id="Path_141" data-name="Path 141" class="cls-2" d="M35.261,97.094a1.325,1.325,0,0,0,.136,1.113c-.232-.223-.6-.567-.964-.474a5.382,5.382,0,0,1-.868-1.246.478.478,0,0,1,.369-.567c.518-.009.958.691,1.326,1.175" transform="translate(-23.167 -66.169)"/>
    <path id="Path_142" data-name="Path 142" class="cls-2" d="M98.684,98.251a5.672,5.672,0,0,0-.589.7,4.645,4.645,0,0,0,.074,4.382,2.764,2.764,0,0,0,.673,1.063,5.816,5.816,0,0,0,4.323,2.067l-.04-.04c2.554.127,4.326-1.286,5.891-3.2a3.3,3.3,0,0,0,.886.236c-.2,1.147-2.107,3.468-3.359,4.636a7.9,7.9,0,0,1-2.321,1.106c-1.512-.744-2.876-2.058-4.59-2.547a34.066,34.066,0,0,0-5.361-1.63,22.932,22.932,0,0,0-3.406-.2,6.319,6.319,0,0,0-1.77.183,23.647,23.647,0,0,0-6.849,2.507,19.47,19.47,0,0,0-2.752,1.832,9.961,9.961,0,0,1-3.793-2.73,27.461,27.461,0,0,1-2-3.13c.418-.189.738-.223,1.137-.375a7.254,7.254,0,0,0,6.976,3.207,4.891,4.891,0,0,0,1.838-.7,5.916,5.916,0,0,0,1.968-2.4,5.189,5.189,0,0,0,.239-2.176,4.718,4.718,0,0,0-.446-1.534,8.536,8.536,0,0,0-1.063-1.469c.555.031,1.739.35,2.312.462,1.481.285,3.8.53,4.689.6a13.629,13.629,0,0,0,2.259.025,23.978,23.978,0,0,0,5.076-.88" transform="translate(-50.874 -67.633)"/>
    <path id="Path_143" data-name="Path 143" class="cls-2" d="M163.094,105.939a.828.828,0,0,1-.5,1.082.783.783,0,0,1-.769-.174c-.133-.341-.4-.7-.1-1.032a.879.879,0,0,1,1.364.124" transform="translate(-111.528 -72.811)"/>
    <path id="Path_144" data-name="Path 144" class="cls-2" d="M155.683,108.417c-.514.009-1.128-.081-1.683-.112a4.12,4.12,0,0,1-.27-1.413c-.276-1.1,1.134-.276,1.58-.722a2.084,2.084,0,0,0,.372,2.247" transform="translate(-106.079 -73.243)"/>
    <path id="Path_145" data-name="Path 145" class="cls-2" d="M106.511,106.533a3.713,3.713,0,0,1,.028,1.667,3.031,3.031,0,0,0-1.509.13,2.154,2.154,0,0,0,.27-1.68,2.726,2.726,0,0,0-.248-.48c.514.124,1.088.236,1.46.363" transform="translate(-72.495 -73.243)"/>
    <path id="Path_146" data-name="Path 146" class="cls-2" d="M93.081,122.47c.294.105,1.066.239,1.066.279a22.27,22.27,0,0,1,6.511,2.783l.88.592-.037-.062a29.539,29.539,0,0,1,4.577,5.243c.6.982,1.928,3.9,2,4.122a17.624,17.624,0,0,0-.068,3.527,3.513,3.513,0,0,0,.914,1.962,11.921,11.921,0,0,1-.136,3.942,4.265,4.265,0,0,0-.893,4.168c.189,1.472-.648,2.764-.933,4.146-.877,2.3-1.993,4.741-2.634,7.087-.6,1.159-.781,2.445-1.478,3.62a10.228,10.228,0,0,0-.657,4.212c-1.218,5.646-2.5,12.343-8.934,14.166a10.687,10.687,0,0,1-8.764-1.041,15.317,15.317,0,0,1-5.857-9.966c-.226-.66-.31-1.354-.558-1.993-.415-1.02-.174-1.351-.152-2.361a8.472,8.472,0,0,0-1.568-5.067,64.856,64.856,0,0,0-3.04-7.949c-.409-1.416-.936-2.932-1.264-4.447a5.23,5.23,0,0,0,.211-2.771c-.232-1.274-1.227-2.185-1.178-3.691a13.754,13.754,0,0,0-.04-2,3.685,3.685,0,0,0,.741-1.333,4.859,4.859,0,0,0,.328-1.559c.381-1.243-.725-2.473.226-3.545a17.6,17.6,0,0,1,3.706-6.136,19.7,19.7,0,0,1,5.451-4.06,8.015,8.015,0,0,1,.942-.459,17.658,17.658,0,0,1,4.906-1.413,8.141,8.141,0,0,1,1.292-.192,15.734,15.734,0,0,1,4.438.2" transform="translate(-49.045 -84.312)"/>
    <path id="Path_147" data-name="Path 147" class="cls-2" d="M184.354,126.51a5.219,5.219,0,0,0,2.956,5.113,5.382,5.382,0,0,0,3.644.17,6.942,6.942,0,0,0,4.428-3.406,12.1,12.1,0,0,1-.146,2.4,5.5,5.5,0,0,1-.824,1.67c-1.36-.421-3.833.344-5.234.992a8.889,8.889,0,0,0-1.993,1.488,5.111,5.111,0,0,1-1.038-.654c-1.556-1.636-2.78-2.848-3.018-7.016.347-.53.989-.951,1.24-1.543Z" transform="translate(-126.392 -86.734)"/>
    <path id="Path_148" data-name="Path 148" class="cls-1" d="M101.575,129.111a19.546,19.546,0,0,1,5.746,5.364,9.7,9.7,0,0,0,.672,1.044c4.013,6.84,2.4,15.312-.387,22.3a81.044,81.044,0,0,0-4.239,14.333c-.883,4.782-2.74,10.515-8,11.882a9,9,0,0,1-9.154-2.3,7.453,7.453,0,0,1-1.739-2.334c-1.735-2.591-2.172-5.634-2.749-8.718A72.346,72.346,0,0,0,77.2,156.618c-1.159-3.71-2.4-7.382-2.3-11.386a17.825,17.825,0,0,1,2.876-10.394,19.018,19.018,0,0,1,12.247-7.955c2.132-.5,4.363-.016,6.378.282a33.9,33.9,0,0,1,5.175,1.946" transform="translate(-51.697 -87.389)"/>
    <path id="Path_149" data-name="Path 149" class="cls-2" d="M54.428,128.069c-.068.514-.136.948-.248,1.6a8.343,8.343,0,0,1-4.332,5.746,8.914,8.914,0,0,0-.781-.629,9.355,9.355,0,0,0-6.368-1.906,6.075,6.075,0,0,1-.84-3.725l.043-.118c.019.022.232.322.232.341a6.889,6.889,0,0,0,4.636,3.282l.257.065a6.679,6.679,0,0,0,3.719-.564c.877-.319,1.271-1.125,1.76-1.909l.062-.136a7.7,7.7,0,0,0,.483-2.47c.009-.415.077-.989.043-1.267a13.591,13.591,0,0,0,1.333,1.689" transform="translate(-28.884 -87.19)"/>
    <path id="Path_150" data-name="Path 150" class="cls-4" d="M176.6,133.166a9.921,9.921,0,0,0,4.212,6.8,7.028,7.028,0,0,0-.942,1.649,20.661,20.661,0,0,0-5.42-7.937,6.323,6.323,0,0,0,1.968-1.311c.273.164.05.5.183.8" transform="translate(-120.401 -91.324)"/>
    <path id="Path_151" data-name="Path 151" class="cls-4" d="M75.758,133.782l0,.2a18.108,18.108,0,0,0-5.268,7.989l0,.1-1.094-1.844c.2-.353.7-.443,1.026-.753a8.96,8.96,0,0,0,3.539-6.771,11.624,11.624,0,0,0,1.8,1.082" transform="translate(-47.9 -91.551)"/>
    <path id="Path_152" data-name="Path 152" class="cls-2" d="M200.981,149.788c2.117.3,3.533,1.912,4.909,3.545a13.192,13.192,0,0,1,1.6,8.575h-.059a15.832,15.832,0,0,1-1.6,5.064c-2.151,4.658-7.713,7.249-9.455,12.272a4.778,4.778,0,0,0-.471,1.875l-.149-.48a6.368,6.368,0,0,1,.744-5.677c1.494-1.36,3.511-2.135,5.024-3.434,2.3-1.9,4.568-4.593,5-7.518a15.267,15.267,0,0,1-.824,1.59l.059.081a14.624,14.624,0,0,1-6.372,6.579l-.381.192c-1.044.654-7.775,2.309-8.194,2.4,2.293-2.671,6.288-3.211,9.39-4.757,2.1-1.15,4.255-2.693,5.151-5.017l-.059-.04a13.064,13.064,0,0,1-8.352,5.47c-1.054.18-1.983,1.013-3.127.672a11.186,11.186,0,0,1-1.708-.924l-.2-.124a6.392,6.392,0,0,0,2.346-.254,6.532,6.532,0,0,1-2.783-1.621,3.855,3.855,0,0,1,.273-3.861,3.03,3.03,0,0,0,1.931,2.792c1.038.614,2.774.152,3.731.9,2.423.781,4.927-.48,6.688-2.312a10.884,10.884,0,0,0,2.69-4.825,5.478,5.478,0,0,0,.35-1.68c.09-.614.065-1.348.1-1.921-.037-.1-.158-.062-.217-.065a11.291,11.291,0,0,1-3.976,8.786c-1.568,1.159-3.948,2.284-5.969,1.075-.589-.328-.738-.846-1.224-1.373.654.093,1.757.431,2.361-.115a4.75,4.75,0,0,0,5.271-.948l0-.158c-.44.189-.9.539-1.463.765a5.147,5.147,0,0,1-4.7-1.082c.3-.133.772.093,1.209.025,2.52-.031,5.42-1.422,6.48-3.9a6.722,6.722,0,0,0,.8-2.582,5.407,5.407,0,0,0-.468-3.5,4.3,4.3,0,0,0-1.15-2.045c-.04-.022-.081.019-.121.037a10.079,10.079,0,0,1,1.264,4.466,7.149,7.149,0,0,1-2.705,5.578l-.242.155a12.441,12.441,0,0,0,1.1-3.787,5.951,5.951,0,0,0-.809-3.325,6.748,6.748,0,0,0-1.77-1.739,4.8,4.8,0,0,0-4.038-.394,3.647,3.647,0,0,0-2.247,2.454,5.088,5.088,0,0,0,.567,3.48,2.108,2.108,0,0,0,1.636.487.708.708,0,0,0,.48-.248,3.674,3.674,0,0,1-1.3-.341,2.171,2.171,0,0,1-.471-1.258,1.956,1.956,0,0,1,.679-1.336,2.349,2.349,0,0,1,2.461-.071,2.521,2.521,0,0,1,1,2.616,3.481,3.481,0,0,1-2.724,2.467c-2.12-.062-4.363-.9-5.194-3.074-.858-1.782-.18-4.128.781-5.656a7.109,7.109,0,0,1,6.647-3.322v-.059a4.318,4.318,0,0,1,1.788.418" transform="translate(-131.691 -103.055)"/>
    <path id="Path_153" data-name="Path 153" class="cls-3" d="M84.47,138.333a17.946,17.946,0,0,1,14.283-8.749c6.409-.236,11.736,3.158,15.238,8.838a64.518,64.518,0,0,0-9.024-2c-.2-.025-.375-.087-.573-.108-.772-.093-1.525-.189-2.3-.242-.654-.071-1.286-.065-1.94-.1a43.828,43.828,0,0,0-11.86,1.2c-.18.037-.378.093-.558.149a25.65,25.65,0,0,0-3.269,1" transform="translate(-58.306 -89.393)"/>
    <g id="Group_11" data-name="Group 11" transform="translate(24.307 46.528)">
      <g id="Group_10" data-name="Group 10" class="cls-5">
        <path id="Path_154" data-name="Path 154" class="cls-6" d="M77.85,158.877l33.4.641.208-10.887-33.4-.641Z" transform="translate(-78.045 -148.631)"/>
      </g>
    </g>
    <path id="Path_156" data-name="Path 156" class="cls-3" d="M111.546,176.114a29.277,29.277,0,0,1-.781,7.131c-.015.034-.04.177-.068.167-1.364-.493-3.056-1.023-4.5-1.379-9.694-2.213-16.161-2-25.173.57l-1.993.518a26.775,26.775,0,0,1-.676-7.146c6.207-2.086,14.761-3.651,21.464-2.709,3.35.282,8.869,1.977,11.727,2.848" transform="translate(-54.048 -119.352)"/>
    <path id="Path_157" data-name="Path 157" class="cls-2" d="M29.236,149.459a6.743,6.743,0,0,1,5.271,3.232l.04-.059c1.041,1.506,1.72,4.354.477,6.155a4.461,4.461,0,0,1-1.8,1.909,4.766,4.766,0,0,1-3.638.505A3.331,3.331,0,0,1,27.25,158.9,2.69,2.69,0,0,1,28.514,156a1.476,1.476,0,0,1,.459-.149,2.91,2.91,0,0,1,2.38.958,2.084,2.084,0,0,1,0,1.962c-.288.57-.883.638-1.422.707-.062.136.118.139.155.2l.257.065a2.209,2.209,0,0,0,1.906-1.233,4.66,4.66,0,0,0-.031-3.489,4.806,4.806,0,0,0-1.6-1.636c-1.825-1.007-3.923-.174-5.33.948a5.71,5.71,0,0,0-1.5,2.687,8.258,8.258,0,0,0,1.178,5.792c-.118-.121-1.717-1.4-1.717-1.4a9.036,9.036,0,0,1-1.565-3.142,4.991,4.991,0,0,1-.071-1.41,9.387,9.387,0,0,1,1.125-3.945c.062-.118.084-.276.006-.316-.257-.065-.4.229-.567.623a11.883,11.883,0,0,0-1.023,4.72,3.646,3.646,0,0,0,.2,1.094,7.615,7.615,0,0,0,1.457,2.647c2.389,2.563,3.948,3.049,7.149,2.575a4.118,4.118,0,0,1-4.246,1.227,5.929,5.929,0,0,1-2.687-1.559l-.1.1a6.323,6.323,0,0,0,4.239,2.321,4.64,4.64,0,0,0,1.813-.48,11.736,11.736,0,0,0,2.358.043,3.659,3.659,0,0,1-2.495,1.934,7.557,7.557,0,0,1-6.781-4.094,13.784,13.784,0,0,1-.765-1.4,10.1,10.1,0,0,1-.992-4.184c-.012-.418.18-1.066,0-1.109-.2-.043-.316,1-.341,1.224a9.845,9.845,0,0,0,.291,2.464,27.3,27.3,0,0,0,1.364,3.316,11.768,11.768,0,0,0,3.229,3.335c.415.127.722.53,1.078.654,1.574.685,3.833.769,5.067-.536a7.385,7.385,0,0,0,2.188-.353c.542-.307,1.543-.961,1.711-1.416.186-.452.62-1.3.449-1.7a3.816,3.816,0,0,1,.4,4.19,3.9,3.9,0,0,1-3.325,1.859c0,.217.217.025.294.164.889.077,1.81-.263,2.681-.267-.908.756-2.408,1.58-3.685.92-3.282-.518-6.452-1.571-8.606-4.109l-.214-.223a1.825,1.825,0,0,0,.359.9,11.768,11.768,0,0,0,2.244,1.906,16.341,16.341,0,0,0,6.356,2.42,9.635,9.635,0,0,1,4.134,2.538l.567.468c-.533-.09-1.206-.242-1.522-.248s-.793.043-.893.022c-2.036-.3-5.2-1.8-8-3.307a15.862,15.862,0,0,1-1.311-.976,13.735,13.735,0,0,1-1.959-2.377c-1.863-2.157-1.906-3.964-2.206-3.889a5.687,5.687,0,0,0,.88,2.752,48.9,48.9,0,0,0,3.077,3.846,3.749,3.749,0,0,0,.685.567,25.3,25.3,0,0,0,4.37,2.64,5.612,5.612,0,0,1,2.048,4.878,16.273,16.273,0,0,0-.359,2.194,14.191,14.191,0,0,0-1.249-3.2l-.04.04c.121-.155-.291-.322-.347-.561-1.36-2.386-3.635-3.759-5.361-5.792l-.155-.161-1.624-2.172a12.436,12.436,0,0,1-.9-1.367,23.187,23.187,0,0,1-1.844-5.191,15.094,15.094,0,0,1-.2-4.881,8.892,8.892,0,0,1,.328-1.639,11.719,11.719,0,0,1,2.743-4.487l.22-.174a11.471,11.471,0,0,1,1.745-1.1l.2-.1a6.871,6.871,0,0,1,4.376-.679" transform="translate(-13.473 -103.039)"/>
    <path id="Path_158" data-name="Path 158" class="cls-4" d="M205,165.367a6.072,6.072,0,0,1-.431,6,3.268,3.268,0,0,1-1.593,1.416c-1.608.127-3.121.474-4.41-.6l-.1.1a5.673,5.673,0,0,0,1.937,2.377c-.995.1-2.145.118-2.64-.883-.037-.062-.118-.043-.158-.043-.18.056-.084.236-.127.353a9.915,9.915,0,0,0,1.066,2.262,3.45,3.45,0,0,1-2.95-1.246,2.506,2.506,0,0,1-.068-2.718l.487-.6c-.4-.046-.84.341-1.1.5a8.713,8.713,0,0,0,.146-2.377,5.943,5.943,0,0,0,5.123,1.664,4.407,4.407,0,0,0,3.142-3.548,3.611,3.611,0,0,0-1.546-3.164,3.008,3.008,0,0,0-2.194-.319,4.008,4.008,0,0,0-1.568,1.181,2.992,2.992,0,0,1,1.271-2.175c.462-.288.084-.257,1.122-.533a4.959,4.959,0,0,1,4.6,2.368" transform="translate(-134.521 -112.427)"/>
    <path id="Path_159" data-name="Path 159" class="cls-4" d="M42.411,164.368a5.1,5.1,0,0,1,.487,1.574,2.913,2.913,0,0,0-1.9-1.286,3.241,3.241,0,0,0-2.74,1.2,3.357,3.357,0,0,0-.539,3.282,4.544,4.544,0,0,0,4.174,2.619,5.581,5.581,0,0,0,3.737-1.633l.158.1a3.7,3.7,0,0,0,.118,2.086c-.39-.267-.865-.335-1.237-.6a3.656,3.656,0,0,1,.6,1.023,2.571,2.571,0,0,1-.208,2.535,3.339,3.339,0,0,1-2.464,1.28l-.319.034a6.944,6.944,0,0,0,.973-2.182,2.385,2.385,0,0,1-1.677.524l-1.01-.019c.88-.4,1.807-2.265,1.89-2.383-.806.738-3.883.917-4.965.4a7.507,7.507,0,0,1-2.017-3.291l-.056-.26a5.25,5.25,0,0,1,1.209-5.051,4.286,4.286,0,0,1,4.007-1.131,3.511,3.511,0,0,1,1.782,1.181" transform="translate(-24.333 -112.528)"/>
    <g id="Group_13" data-name="Group 13" transform="translate(24.983 61.097)">
      <g id="Group_12" data-name="Group 12" class="cls-7">
        <path id="Path_160" data-name="Path 160" class="cls-8" d="M80.07,205.267l31.833.614.2-10.174-31.836-.617Z" transform="translate(-80.253 -195.704)"/>
      </g>
    </g>
    <path id="Path_162" data-name="Path 162" class="cls-4" d="M68.905,213.482l.245.719a81.906,81.906,0,0,0,3.142,8.745,22.5,22.5,0,0,0-4.354-3.514,9.28,9.28,0,0,0-.976-.753,6.3,6.3,0,0,1,3.412.858l.062-.059a12.109,12.109,0,0,0-3.886-4.06l0-.081a4.724,4.724,0,0,0,2.083-2.1c-.254-.223-.778.2-.93-.177.223-.2.6-.226.685-.561.313.167.322.663.514.982" transform="translate(-45.94 -146.621)"/>
    <path id="Path_163" data-name="Path 163" class="cls-4" d="M185.414,217.288a11.676,11.676,0,0,0-4.143,4.085l.037.059c.973-1.032,2.4-.9,3.632-1.24l.1.1a21.389,21.389,0,0,0-5.826,4.965c.158-1.088.976-2.361,1.2-3.644a22.624,22.624,0,0,0,2.275-5.885l.211-.629a9.659,9.659,0,0,0,2.52,2.188" transform="translate(-123.686 -148.415)"/>
    <path id="Path_164" data-name="Path 164" class="cls-3" d="M115.049,221.7c.019,0,.04.022.059.022-.834,2.058-1.584,4.212-2.194,6.114a39.885,39.885,0,0,0-13.527-1.779c-3.331.015-6.3.917-9.573,1.832-.654-2.129-1.54-4.46-2.374-6.511l.022-.019a.522.522,0,0,1,.037.139c9.368-3.61,18.421-3.176,27.6.214.015-.04-.068.028-.046-.012" transform="translate(-60.356 -151.09)"/>
    <path id="Path_165" data-name="Path 165" class="cls-2" d="M183.706,231.732a37.241,37.241,0,0,0-4.525,4.336,9.534,9.534,0,0,0-.961,1.509c-.654,1.079-1.441,3.858-.524,5.581a2.8,2.8,0,0,0,1.522,1.357,3.563,3.563,0,0,0,2.52-.012,3.376,3.376,0,0,0,1.708-2.247c.053-.731.037-1.884-.387-1.475-.425.387-.208,1.584-.806,1.77a2.01,2.01,0,0,1-1.723-.093,1.817,1.817,0,0,1-.818-1.8,2.282,2.282,0,0,1,1.5-1.537,1.777,1.777,0,0,1,1.109.081,3.462,3.462,0,0,1,1.807.927,1.985,1.985,0,0,1,.555,1.122,5.6,5.6,0,0,1-.236,2.991,6.525,6.525,0,0,1-4.45,2.473c-1.19,0-.4.189-1.642-.13s-3.57-2.011-3.926-4.041c-.5-3.818,1.779-6.886,4.422-9.452.319-.112.607-.623.985-.775.744-.5,1.608-1.14,2.33-1.621l-.059.037a9.393,9.393,0,0,1,2.637-1.041,5.691,5.691,0,0,0-1.035,2.042" transform="translate(-120.336 -158.484)"/>
    <path id="Path_166" data-name="Path 166" class="cls-2" d="M62.842,234.567c2.6,2.11,4.351,4.763,4.047,8.206a6.205,6.205,0,0,1-4.416,4.853c-1.7.682-3.626-.149-4.875-1.224a4.225,4.225,0,0,1-.9-4.934,2.785,2.785,0,0,1,1.475-1.419,2.67,2.67,0,0,1,2.668.409,2.391,2.391,0,0,1,.58,1.894,1.118,1.118,0,0,1-.635,1.119,2.192,2.192,0,0,1-2.039-.1c-.508-.406-.353-1.178-.6-1.658a.7.7,0,0,0-.428.567,3.138,3.138,0,0,0,.9,2.715,4.369,4.369,0,0,0,2.8.806,2.619,2.619,0,0,0,1.463-.765,3.241,3.241,0,0,0,.917-1.23,7.517,7.517,0,0,0,.325-2.55,4.393,4.393,0,0,0-.1-.834,5.72,5.72,0,0,0-.7-1.522,25.279,25.279,0,0,0-5.557-6,11.5,11.5,0,0,0-1.013-1.863c2.591.108,4.075,2.259,6.1,3.527" transform="translate(-38.845 -159.416)"/>
    <g id="Group_15" data-name="Group 15" transform="translate(29.495 74.875)">
      <g id="Group_14" data-name="Group 14" class="cls-9">
        <path id="Path_167" data-name="Path 167" class="cls-10" d="M94.69,249.21l23.2.449.177-9.12-23.2-.449Z" transform="translate(-94.854 -240.536)"/>
      </g>
    </g>
    <path id="Path_169" data-name="Path 169" class="cls-3" d="M120.051,265.929a27.667,27.667,0,0,1-1.584,6.589c-5.337-1.949-12.2-1.881-16.2-.13A49.74,49.74,0,0,1,100.4,265.9a29.067,29.067,0,0,1,14.841-1.051c1.677.39,3.142.558,4.8,1.085.022.006-.136-.006.012,0" transform="translate(-69.3 -182.392)"/>
    <path id="Path_170" data-name="Path 170" class="cls-4" d="M173.111,276.028a21.367,21.367,0,0,0-2.321,1.165c.158-1.029.459-2.191.738-3.276l.1-.037a4.184,4.184,0,0,0,1.484,2.148" transform="translate(-117.876 -188.979)"/>
    <path id="Path_171" data-name="Path 171" class="cls-4" d="M88.927,276.612a6.26,6.26,0,0,0-2.337-1.233,5.672,5.672,0,0,0,1.515-2.488,21.511,21.511,0,0,1,.821,3.722" transform="translate(-59.769 -188.296)"/>
    <g id="Group_17" data-name="Group 17" transform="translate(32.932 88.666)">
      <g id="Group_16" data-name="Group 16" class="cls-11">
        <path id="Path_172" data-name="Path 172" class="cls-12" d="M105.85,292.8l16.372.313.149-7.772L106,285.03Z" transform="translate(-105.993 -285.34)"/>
      </g>
    </g>
    <path id="Path_174" data-name="Path 174" class="cls-2" d="M169.937,283.057a6.462,6.462,0,0,0,4.738,1c.266.561.713,1.044.961,1.584-.2.2.177.183.053.319-1.807-.967-4.534-1.317-6.167.04a4.855,4.855,0,0,0-1.528,1.181c-.725.579-.741,1.494-1.233,2.216a7.634,7.634,0,0,0-.037,4l.09.418c-.508-.366-.893-.97-1.323-1.333-.3-1.692-.992-4.084-.093-5.495.307-.57.508-2.665,1.788-3.276a3.975,3.975,0,0,1,2.495-.9Z" transform="translate(-113.847 -195.138)"/>
    <path id="Path_175" data-name="Path 175" class="cls-2" d="M74.409,283.954c.037.1.6,1.658.793,2a12.652,12.652,0,0,0,1.047,2.241,15.634,15.634,0,0,1-.5,3.48,14.7,14.7,0,0,0-1.469,1.221,10.145,10.145,0,0,0-.04-3.015c-.291-1.314-1.416-3.775-3.362-4.546a7.147,7.147,0,0,0-5.476.211c.211-.651.769-1.887.75-1.85a11.753,11.753,0,0,0,1.977.217,6.177,6.177,0,0,0,3.319-1.4c.911-.139,2.244.719,2.963,1.447" transform="translate(-45.146 -194.922)"/>
    <path id="Path_176" data-name="Path 176" class="cls-2" d="M77.767,296.534c-1.035,1.249-1.915,2.622-2.947,3.771a3.61,3.61,0,0,0-.508-.325c-.27-.462-1.475-.645-.868-1.268,1.016-1.249,1.788-2.265,2.941-3.533a4.988,4.988,0,0,1,1.382,1.354" transform="translate(-50.581 -203.679)"/>
    <path id="Path_177" data-name="Path 177" class="cls-2" d="M57.562,298.305c.18,0,.375.046.626.387a.671.671,0,0,1-.012.672c-.164.276-.421.229-.676.146-.533-.17.133-.731-.3-.741a.666.666,0,0,0-.232.79,9.869,9.869,0,0,0,2.309,1.689c1.2.716,3.756,2.65,5.671,4.153l.369.4c.325.642.592,1.221.161,1.887-.279.152-.6.366-.936.2-.316-.124-.35-.384-.524-.586.084-.236.031-.5.27-.669l.418-.053c-.022.059.056.139.118.1.158-.037.1.22.254.223.081-.1.043-.276.068-.415-1.99-1.683-4.264-3.056-6.235-4.661-.843-.511-2.079-1.23-2.3-2.284-.053-.418.04-1.029.5-1.181.136-.13.273-.108.452-.065" transform="translate(-39.072 -205.812)"/>
    <path id="Path_178" data-name="Path 178" class="cls-4" d="M160.248,303.74a7.227,7.227,0,0,0,.586,2.569l-1.763-1.125c.186-.434.669-.781.914-1.193a.416.416,0,0,1,.263-.251" transform="translate(-109.788 -209.586)"/>
    <path id="Path_179" data-name="Path 179" class="cls-4" d="M102.322,303.98a10.31,10.31,0,0,0-1.782.976,17.548,17.548,0,0,0,.412-2.826c.344.48.961,1.385,1.37,1.85" transform="translate(-69.396 -208.475)"/>
    <path id="Path_180" data-name="Path 180" class="cls-2" d="M72.526,309.533c.056.121-.242.115-.263.313-.883-.511-1.757-1.4-2.523-1.853.043-.139-.09-.437.167-.453.939.61,1.661,1.32,2.619,1.993" transform="translate(-48.141 -212.208)"/>
    <path id="Path_181" data-name="Path 181" class="cls-2" d="M96.631,310.11c.762.53,1.584,1.1,2.368,1.652a11.2,11.2,0,0,0,7.89,1.1,14.844,14.844,0,0,0,3.84-1.652c.558-.226.936-1.23,1.7-.759a11.585,11.585,0,0,1,4.3,3.353,2.713,2.713,0,0,0-.648.623,9.379,9.379,0,0,0-1.054-.793,3.389,3.389,0,0,0-1.4-.3,3.475,3.475,0,0,0-.834.025,5.2,5.2,0,0,0-3.657,2.566,4.531,4.531,0,0,0,.3,4.131,5.642,5.642,0,0,0,1.283,1.391,2.581,2.581,0,0,1-1.128-.1,7.744,7.744,0,0,1-5.343-5.792,4.076,4.076,0,0,1-.214.75,6.995,6.995,0,0,1-6.666,5.343A3.97,3.97,0,0,0,99.814,318l0-.217a4.623,4.623,0,0,0-1.7-3.641,4.954,4.954,0,0,0-4.788-.49c-.2.136-.4.288-.542.387a9.789,9.789,0,0,0-1.082-.4,3.388,3.388,0,0,1,.75-.84c1.156-1.367,2.693-1.912,4.1-2.659Z" transform="translate(-63.303 -213.982)"/>
    <path id="Path_182" data-name="Path 182" class="cls-2" d="M57,315.043c.409.344,1.057.654,1.268,1.035a31.453,31.453,0,0,1-3.52,4.769l.059.062c-.762.462-1.224,1.8-2.386,1.422-.2-.143-.511-.267-.564-.546-.084-.855.744-1.593,1.134-2.318,1.317-1.481,2.241-3.13,3.753-4.429Z" transform="translate(-35.796 -217.384)"/>
    <path id="Path_183" data-name="Path 183" class="cls-4" d="M156.064,334.887a2.531,2.531,0,0,1-.2,2.256,2.827,2.827,0,0,1-4.552-.505,12.7,12.7,0,0,1,2.873.2,1.247,1.247,0,0,0,1.286-.908,1.086,1.086,0,0,0-.555-1.14,1.291,1.291,0,0,0-1.109-.022,1.108,1.108,0,0,0-.366.39,1.026,1.026,0,0,1,.632-.92,1.453,1.453,0,0,1,1.993.654" transform="translate(-104.433 -230.497)"/>
    <path id="Path_184" data-name="Path 184" class="cls-2" d="M188.141,307.419c.112.437.651,1.283.8,1.72l.155.2a5.507,5.507,0,0,0,4.054,2.634,4.494,4.494,0,0,0,.576-.05,2.92,2.92,0,0,1-2.454.787c-.827-.2-1.565-1.159-2.11-1.646a7.018,7.018,0,0,0,.555,1.1,2.6,2.6,0,0,1-.8,3.474,3.969,3.969,0,0,0-.58-3.877c-1.147-1.252-3.031-2.278-4.181-3.313l-.505-.524a3.422,3.422,0,0,1-1.147-3.2c.043-.118.062-.136.124-.276a2.675,2.675,0,0,1,1.726-1.057c2.12.043,3.142,2.52,3.787,4.019" transform="translate(-125.921 -209.351)"/>
    <path id="Path_185" data-name="Path 185" class="cls-2" d="M209.07,333.984c.3-.174,1.382,1.3,1.3,1.571.056.22-.146.375-.325.449-.936.161-1.329-1-1.757-1.4a2.522,2.522,0,0,0-.236-1.134,3.1,3.1,0,0,0,1.02.514" transform="translate(-143.589 -230.102)"/>
    <path id="Path_186" data-name="Path 186" class="cls-2" d="M151.856,335.4a1.079,1.079,0,0,0,.4.979c-.257-.043-.555-.05-.831-.074l-1.249-.084a3.383,3.383,0,0,1-.226-1.571,7.3,7.3,0,0,0,2.563-.347,1.7,1.7,0,0,0-.654,1.1" transform="translate(-103.485 -230.675)"/>
    <path id="Path_187" data-name="Path 187" class="cls-4" d="M100.01,334.278l.053.3a1.284,1.284,0,0,0-1.4-.325,1.078,1.078,0,0,0-.635,1.137,1.154,1.154,0,0,0,.951.989,2.345,2.345,0,0,0,1.41-.17c.657-.146,1.348-.034,1.869-.183a3.01,3.01,0,0,1-2.867,1.67,2.326,2.326,0,0,1-1.816-3.527c.425-.62,2.039-1,2.436.112" transform="translate(-67.109 -230.17)"/>
    <path id="Path_188" data-name="Path 188" class="cls-2" d="M108.91,334.664a4.269,4.269,0,0,1-.263,1.4,8.223,8.223,0,0,0-2.287.273,1.535,1.535,0,0,0,.381-1.342,1.573,1.573,0,0,0-.322-.858,11.82,11.82,0,0,1,2.492.524" transform="translate(-73.413 -230.565)"/>
    <path id="Path_189" data-name="Path 189" class="cls-2" d="M48.471,339.259a.907.907,0,0,1,.136,1.094,1,1,0,0,1-1.1.356c-.294-.084-.449-.406-.564-.626-.174-.319.071-.614.214-.849a1.017,1.017,0,0,1,1.311.025" transform="translate(-32.37 -233.923)"/>
    <path id="Path_190" data-name="Path 190" class="cls-2" d="M125.018,350.076c.158.1.332.285.57.27a1.624,1.624,0,0,1-.62.325,2.234,2.234,0,0,1-2.194-.359,3.052,3.052,0,0,0-1.171-3.077l.115.18a3.684,3.684,0,0,1,.471,2.389,4.213,4.213,0,0,1-.381,1.243,28.817,28.817,0,0,0-1.438,2.668,5.306,5.306,0,0,0-.285-.579,6.461,6.461,0,0,1-1.757-4.556,2.9,2.9,0,0,1,.48-1.36,3.28,3.28,0,0,0-1.233,2.3,2.96,2.96,0,0,0,.139.933c-.648.682-2.145.236-2.733-.152,2.092-.456,2.042-3.114,4.215-3.626a3.576,3.576,0,0,1,3.573.781,13.065,13.065,0,0,0,2.25,2.625" transform="translate(-79.361 -239.1)"/>
    <path id="Path_191" data-name="Path 191" class="cls-2" d="M91.031,77.09a3.739,3.739,0,0,1-1.416,1.419c.573.09.688.291,1.45.9a23.534,23.534,0,0,0-4.834.88,1.3,1.3,0,0,0-.282-1.791,1.409,1.409,0,0,0-.769-.291,35,35,0,0,1,5.851-1.119" transform="translate(-58.796 -53.175)"/>
    <path id="Path_192" data-name="Path 192" class="cls-13" d="M68.89,216.1l0-.022.019,0Z" transform="translate(-47.555 -149.092)"/>
    <path id="Path_193" data-name="Path 193" class="cls-2" d="M130.013,7.7a.825.825,0,0,0,.849-.815.842.842,0,0,0-1.683-.034.826.826,0,0,0,.834.849" transform="translate(-89.16 -4.143)"/>
    <path id="Path_194" data-name="Path 194" class="cls-2" d="M130.6,2.156a.673.673,0,0,0,.688-.66.687.687,0,0,0-.66-.707.7.7,0,0,0-.707.682.682.682,0,0,0,.679.685" transform="translate(-89.671 -0.52)"/>
    <path id="Path_195" data-name="Path 195" class="cls-2" d="M136.16,7.908a.695.695,0,1,0-.66-.707.689.689,0,0,0,.66.707" transform="translate(-93.522 -4.475)"/>
    <path id="Path_196" data-name="Path 196" class="cls-2" d="M124.668,7.866A.684.684,0,0,0,124.7,6.5a.689.689,0,0,0-.707.682.682.682,0,0,0,.679.685" transform="translate(-85.579 -4.461)"/>
    <path id="Path_197" data-name="Path 197" class="cls-2" d="M127.987,20.239a1.795,1.795,0,1,1-1.838,1.751,1.8,1.8,0,0,1,1.838-1.751" transform="translate(-87.069 -13.942)"/>
    <path id="Path_198" data-name="Path 198" class="cls-2" d="M130.848,12.11h0a.473.473,0,0,1,.468.483l-.022,1.209a.474.474,0,0,1-.487.468.485.485,0,0,1-.468-.483l.022-1.209a.488.488,0,0,1,.487-.468" transform="translate(-89.961 -8.332)"/>
    <path id="Path_199" data-name="Path 199" class="cls-14" d="M53.819,71.43a.882.882,0,0,1-.034,1.763.9.9,0,0,1-.855-.908.88.88,0,0,1,.889-.855" transform="translate(-36.54 -49.269)"/>
    <path id="Path_200" data-name="Path 200" class="cls-14" d="M73.916,60.179a.922.922,0,1,1-.927.9.915.915,0,0,1,.927-.9" transform="translate(-50.383 -41.505)"/>
    <path id="Path_201" data-name="Path 201" class="cls-14" d="M99.8,52.549a.912.912,0,0,1,.9.93.922.922,0,1,1-1.844-.034.91.91,0,0,1,.948-.9" transform="translate(-68.23 -36.239)"/>
    <path id="Path_202" data-name="Path 202" class="cls-14" d="M160.241,52.74a.922.922,0,0,1-.037,1.844.922.922,0,1,1,.037-1.844" transform="translate(-109.939 -36.371)"/>
    <path id="Path_203" data-name="Path 203" class="cls-14" d="M186.141,60.34a.922.922,0,1,1-.951.914.923.923,0,0,1,.951-.914" transform="translate(-127.813 -41.616)"/>
    <path id="Path_204" data-name="Path 204" class="cls-14" d="M206.658,71.42a.922.922,0,1,1-.948.9.924.924,0,0,1,.948-.9" transform="translate(-141.974 -49.262)"/>
    <path id="Path_205" data-name="Path 205" class="cls-14" d="M177.279,81.739a1.062,1.062,0,1,1-1.069,1.032,1.064,1.064,0,0,1,1.069-1.032" transform="translate(-121.616 -56.383)"/>
    <path id="Path_206" data-name="Path 206" class="cls-14" d="M124.532,51.429a1.1,1.1,0,1,1-1.113,1.069,1.1,1.1,0,0,1,1.113-1.069" transform="translate(-85.185 -35.467)"/>
    <path id="Path_207" data-name="Path 207" class="cls-14" d="M129.7,43.27a1.11,1.11,0,1,1-1.131,1.088A1.109,1.109,0,0,1,129.7,43.27" transform="translate(-88.739 -29.836)"/>
    <path id="Path_208" data-name="Path 208" class="cls-14" d="M135.092,50.859a1.1,1.1,0,1,1-.043,2.2,1.1,1.1,0,0,1,.043-2.2" transform="translate(-92.473 -35.073)"/>
    <path id="Path_209" data-name="Path 209" class="cls-14" d="M127.835,75.459c1.091.022,1.971.614,1.959,1.326-.012.694-.917,1.252-2.005,1.23s-1.971-.614-1.959-1.3c.012-.716.917-1.274,2.005-1.252" transform="translate(-86.849 -52.049)"/>
    <path id="Path_210" data-name="Path 210" class="cls-14" d="M82.288,81.9a1.015,1.015,0,0,1,.992,1.029,1.011,1.011,0,0,1-2.021-.037,1.015,1.015,0,0,1,1.029-.992" transform="translate(-56.091 -56.494)"/>
    <path id="Path_211" data-name="Path 211" class="cls-2" d="M98.619,105.49a.856.856,0,0,0-.849.837.832.832,0,1,0,1.664.031.856.856,0,0,0-.815-.868" transform="translate(-67.484 -72.773)"/>
    <path id="Path_212" data-name="Path 212" class="cls-2" d="M66.253,133.55a1.21,1.21,0,1,1-1.233,1.187,1.2,1.2,0,0,1,1.233-1.187" transform="translate(-44.884 -92.138)"/>
    <path id="Path_213" data-name="Path 213" class="cls-2" d="M129.731,337.639a1.11,1.11,0,1,1-1.171,1.088,1.129,1.129,0,0,1,1.171-1.088" transform="translate(-88.732 -232.98)"/>
    <path id="Path_214" data-name="Path 214" class="cls-2" d="M159.634,337.49a.614.614,0,1,1-.022,1.227.614.614,0,1,1,.022-1.227" transform="translate(-109.732 -232.876)"/>
    <path id="Path_215" data-name="Path 215" class="cls-2" d="M102.016,337.03a.615.615,0,1,1-.666.6.64.64,0,0,1,.666-.6" transform="translate(-69.955 -232.559)"/>
    <path id="Path_216" data-name="Path 216" class="cls-2" d="M29.57,89.9a.794.794,0,1,1-.79.781.777.777,0,0,1,.79-.781" transform="translate(-19.875 -62.015)"/>
    <path id="Path_217" data-name="Path 217" class="cls-2" d="M216.167,342.29a.744.744,0,1,1-.028,1.488.744.744,0,1,1,.028-1.488" transform="translate(-148.647 -236.189)"/>
    <path id="Path_218" data-name="Path 218" class="cls-2" d="M178.624,296.35a1.189,1.189,0,0,1,1.147,1.212,1.172,1.172,0,0,1-1.193,1.147,1.155,1.155,0,0,1-1.128-1.193,1.178,1.178,0,0,1,1.175-1.165" transform="translate(-122.471 -204.486)"/>
    <path id="Path_219" data-name="Path 219" class="cls-15" d="M76.061,457.4a23.351,23.351,0,0,1-.068,2.492c-.053.338-.081.555-.31.611a1.657,1.657,0,0,1-.366.053.094.094,0,0,0-.1.1c0,.068.068.1.189.1.366,0,1.085-.04,1.178-.04s.812.04,1.395.04c.136,0,.189-.04.189-.1a.093.093,0,0,0-.093-.1,3.9,3.9,0,0,1-.462-.053c-.366-.056-.421-.27-.462-.611-.053-.474-.053-1.382-.053-2.492v-1.125h.053c.57.676,3.074,3.319,3.617,3.737a2.511,2.511,0,0,0,1.45.7,7.5,7.5,0,0,0,.827.028h.611c.2,0,.257-.04.257-.1s-.068-.1-.149-.1a2.586,2.586,0,0,1-.731-.161c-.57-.229-.7-.378-1.708-1.274-.487-.446-2.966-2.925-3.279-3.263.257-.285,2.29-2.234,2.588-2.5a4.221,4.221,0,0,1,1.246-.976,1.922,1.922,0,0,1,.663-.161c.1,0,.121-.04.121-.1s-.056-.081-.177-.081c-.3,0-1.085.028-1.15.028-.285,0-.651-.028-.9-.028-.081,0-.136.028-.136.081a.126.126,0,0,0,.108.108c.1.012.149.081.149.229,0,.189-.31.487-.651.827-.446.462-2.572,2.56-2.764,2.777H77.1v-.691c0-1.788,0-2.114.028-2.479.028-.406.108-.567.418-.635a1.351,1.351,0,0,1,.3-.028.1.1,0,0,0,.1-.1c0-.068-.053-.1-.189-.1-.353,0-1.069.028-1.178.028-.068,0-.8-.028-1.342-.028-.136,0-.189.028-.189.1a.119.119,0,0,0,.1.1,3.34,3.34,0,0,1,.406.028c.394.056.462.245.487.635.028.366.028.691.028,2.479V457.4Zm-3.914-2.033c0-1.788,0-2.114.012-2.479.028-.406.1-.567.418-.635a1.3,1.3,0,0,1,.3-.028.119.119,0,0,0,.1-.1c0-.068-.053-.1-.189-.1-.366,0-1.137.028-1.193.028s-.812-.028-1.206-.028c-.136,0-.189.028-.189.1a.1.1,0,0,0,.1.1,2.064,2.064,0,0,1,.366.04c.257.056.353.229.378.623.028.366.028.691.028,2.479V457.4c0,1.109-.012,2.017-.068,2.492-.04.338-.081.555-.313.611a1.657,1.657,0,0,1-.366.053.094.094,0,0,0-.1.1c0,.068.068.1.189.1.366,0,1.109-.04,1.178-.04.053,0,.827.04,1.491.04.136,0,.189-.04.189-.1a.094.094,0,0,0-.1-.1,5.426,5.426,0,0,1-.542-.053c-.353-.056-.394-.27-.434-.611-.053-.474-.053-1.382-.053-2.492v-2.033Zm-11.73-1.624c.366.406,1.708,1.816,3.087,3.263,1.261,1.314,2.978,3.006,3.1,3.114.663.611.787.7.908.7.081,0,.1-.068.1-.827l.028-6.743c0-.691.028-.92.418-1a1.313,1.313,0,0,1,.285-.028.137.137,0,0,0,.136-.108c0-.068-.1-.081-.217-.081-.487,0-.88.028-1.016.028s-.7-.028-1.246-.028c-.136,0-.229.012-.229.081,0,.04.012.108.1.108a3.806,3.806,0,0,1,.583.053c.366.068.434.325.446,1.069l.121,5.77c-.366-.378-1.639-1.748-2.817-2.966-1.841-1.9-3.576-3.737-3.765-3.926-.121-.121-.325-.353-.462-.353-.1,0-.161.121-.161.583v6.595c0,1.041-.04,1.354-.338,1.435a1.956,1.956,0,0,1-.487.068.1.1,0,0,0-.1.1c0,.081.068.1.189.1.542,0,1.041-.04,1.15-.04s.583.04,1.261.04c.136,0,.217-.028.217-.1a.1.1,0,0,0-.1-.1,2.725,2.725,0,0,1-.6-.068c-.325-.081-.434-.366-.462-1.314Zm-8.845-.3a4.793,4.793,0,0,1-.325-.961.186.186,0,0,1,.136-.2,1.476,1.476,0,0,1,.434-.053.111.111,0,0,0,.121-.108c0-.056-.108-.081-.325-.081-.462,0-.989.028-1.109.028-.149,0-.827-.028-1.395-.028-.189,0-.31.013-.31.081a.1.1,0,0,0,.1.108,2.344,2.344,0,0,1,.462.04c.394.1.555.217.827.868L53.11,460.2c.229.555.313.7.446.7s.189-.177.514-.868c.27-.57.8-1.816,1.531-3.5.611-1.407,1.193-2.789,1.326-3.115.313-.787.5-.948.663-1.057a1.1,1.1,0,0,1,.57-.136c.1,0,.136-.056.136-.108s-.068-.081-.189-.081c-.353,0-.868.028-.936.028-.149,0-.691-.028-1.165-.028-.189,0-.27.028-.27.1,0,.053.068.1.136.1a1.392,1.392,0,0,1,.406.04.242.242,0,0,1,.161.245,1.89,1.89,0,0,1-.108.434c-.257.827-1.816,4.754-2.5,6.3Zm-11.308,2.613c0-2.5,1.435-3.753,3.428-3.753,1.884,0,3.561,1.45,3.561,4.212,0,3.331-2.154,3.9-3.223,3.9-2.154,0-3.765-1.68-3.765-4.36m-1.233.313a4.415,4.415,0,0,0,4.658,4.525,4.612,4.612,0,0,0,4.782-4.7c0-2.681-2.03-4.32-4.714-4.32a4.557,4.557,0,0,0-4.726,4.493m-6.9-3.725a.148.148,0,0,1,.1-.136,5.086,5.086,0,0,1,.852-.068,1.989,1.989,0,0,1,2.058,2.262,2.054,2.054,0,0,1-.719,1.76,1.551,1.551,0,0,1-.893.2,4.008,4.008,0,0,1-1.314-.177.165.165,0,0,1-.081-.149ZM31.094,457.4a23.35,23.35,0,0,1-.068,2.492c-.056.338-.081.555-.313.611a1.657,1.657,0,0,1-.366.053.094.094,0,0,0-.1.1c0,.068.068.1.189.1.366,0,1.165-.04,1.178-.04.053,0,.812.04,1.463.04.136,0,.189-.04.189-.1a.085.085,0,0,0-.1-.1,4.785,4.785,0,0,1-.527-.053c-.366-.056-.434-.27-.474-.611-.053-.474-.053-1.367-.053-2.479v-.27c0-.068.028-.1.081-.1l1.515.028a.176.176,0,0,1,.161.068c.257.313.787,1.057,1.286,1.68a6.027,6.027,0,0,0,1.624,1.692,2.415,2.415,0,0,0,1.274.229H38.8c.217,0,.285-.028.285-.1a.106.106,0,0,0-.108-.1,2.236,2.236,0,0,1-.421-.04,2.175,2.175,0,0,1-1.326-.8c-.691-.719-1.515-1.76-2.492-2.978A3.37,3.37,0,0,0,36.2,454.11a2.013,2.013,0,0,0-.827-1.571,3.9,3.9,0,0,0-2.222-.5c-.366,0-1.367.028-1.491.028-.068,0-.868-.028-1.407-.028-.136,0-.189.028-.189.1a.115.115,0,0,0,.1.1,3.4,3.4,0,0,1,.406.028c.394.056.462.245.487.635.028.366.028.691.028,2.479V457.4Zm-6.88-1.153c0-.053.028-.081.068-.081.189,0,.784,0,.933.028a2.492,2.492,0,0,1,1.069.3,2.519,2.519,0,0,1,1.137,2.1,1.578,1.578,0,0,1-1.748,1.776,2.855,2.855,0,0,1-1.044-.161c-.366-.177-.366-.313-.406-.868-.012-.177-.012-1.559-.012-2.451v-.638Zm0-3.669c0-.068.04-.1.149-.121a3.506,3.506,0,0,1,.611-.053,1.691,1.691,0,0,1,1.68,1.856,1.773,1.773,0,0,1-.462,1.233c-.245.27-.5.3-1.165.3a3.869,3.869,0,0,1-.731-.053c-.053-.012-.081-.04-.081-.121ZM23.185,457.4a23.351,23.351,0,0,1-.068,2.492c-.056.338-.081.6-.313.635-.108.012-.257.053-.366.053-.068,0-.1.028-.1.068,0,.068.068.1.189.1.189,0,.474-.012.719-.028.245,0,.462-.012.487-.012.053,0,.394.012.772.028s.812.04,1.029.04c2.03,0,2.994-1.274,2.994-2.56a2.739,2.739,0,0,0-2.1-2.4,2.721,2.721,0,0,0,1.206-2.017c0-.61-.514-1.76-2.507-1.76-.555,0-1.109.028-1.395.028-.068,0-.84-.028-1.382-.028-.136,0-.189.028-.189.1,0,.04.056.068.1.068a3.34,3.34,0,0,1,.406.028c.394.053.462.27.487.663.028.366.028.691.028,2.479V457.4Zm-10.524-.341a3.721,3.721,0,0,0,1.041,3.018,3.709,3.709,0,0,0,2.479.812,3.6,3.6,0,0,0,2.492-.84,4.424,4.424,0,0,0,1.109-3.452v-1.233c0-1.788-.012-2.114.012-2.479s.1-.567.421-.635a1.348,1.348,0,0,1,.3-.028.106.106,0,0,0,.1-.1c0-.068-.053-.1-.189-.1-.353,0-.92.028-1,.028s-.759-.028-1.286-.028c-.136,0-.189.028-.189.1a.1.1,0,0,0,.1.1,3.34,3.34,0,0,1,.406.028c.394.056.462.27.474.635s.028.691.028,2.479v1.45a4.245,4.245,0,0,1-.676,2.789,2.446,2.446,0,0,1-1.841.812,2.333,2.333,0,0,1-1.776-.623c-.514-.462-.88-1.15-.88-2.817v-1.612c0-1.788,0-2.114.028-2.479s.1-.583.406-.635a1.348,1.348,0,0,1,.3-.028.119.119,0,0,0,.108-.1c0-.068-.068-.1-.2-.1-.353,0-1.1.028-1.206.028s-.827-.028-1.367-.028c-.136,0-.189.028-.189.1a.119.119,0,0,0,.1.1,3.34,3.34,0,0,1,.406.028c.394.056.462.27.487.635s.028.691.028,2.479v1.7ZM2.3,454.221c0-1.041,0-2.423.012-2.885a.243.243,0,0,1,.161-.27,3.686,3.686,0,0,1,.88-.1A5.565,5.565,0,0,1,7.783,452.5a4.845,4.845,0,0,1,1.3,3.412A4.735,4.735,0,0,1,8,459.152a4.544,4.544,0,0,1-3.223,1.258c-1.6,0-2.126-.285-2.3-.542a2.927,2.927,0,0,1-.149-1.029c-.012-.257-.028-1.5-.028-2.938v-1.68Zm-1.137,2.6c0,1.3,0,2.371-.068,2.938-.053.394-.121.691-.394.744a2.025,2.025,0,0,1-.406.053c-.081,0-.108.04-.108.081,0,.081.068.109.217.109.2,0,.514-.028.784-.028.285-.012.514-.012.542-.012.068,0,.527.04,1.125.081.583.04,1.3.081,1.881.081a5.375,5.375,0,0,0,4.1-1.559,5.533,5.533,0,0,0,1.463-3.818,4.831,4.831,0,0,0-1.314-3.44c-1.611-1.667-4.091-1.543-5.433-1.543-.812,0-1.667.04-1.828.04-.068,0-.92-.04-1.531-.04-.149,0-.217.028-.217.108,0,.056.053.081.108.081a2.486,2.486,0,0,1,.462.04c.446.093.555.313.583.772.028.434.028.812.028,2.926v2.389Z" transform="translate(0 -310.867)"/>
    <path id="Path_220" data-name="Path 220" class="cls-15" d="M103.821,404.972a.191.191,0,0,1,.139-.217,3.039,3.039,0,0,1,.672-.077,4.614,4.614,0,0,1,3.62,1.206,3.743,3.743,0,0,1,1.054,2.705,3.626,3.626,0,0,1-.877,2.566,3.751,3.751,0,0,1-2.619.979c-1.32,0-1.717-.229-1.856-.431a2.019,2.019,0,0,1-.127-.775c-.012-.2-.012-1.206-.012-2.349v-3.607Zm-1.016,4.345a22.566,22.566,0,0,1-.062,2.337c-.05.316-.077.521-.291.573a1.65,1.65,0,0,1-.344.05.088.088,0,0,0-.09.09c0,.065.062.09.177.09.177,0,.443-.012.673-.025s.431-.012.459-.012c.05,0,.431.025.914.065.483.025,1.082.062,1.562.062A4.492,4.492,0,0,0,109.2,411.3a4.323,4.323,0,0,0,1.206-3.037,3.794,3.794,0,0,0-1.094-2.746c-1.32-1.333-3.366-1.233-4.484-1.233-.66,0-1.373.025-1.5.025-.062,0-.787-.025-1.3-.025-.127,0-.177.025-.177.09a.109.109,0,0,0,.09.09,3.694,3.694,0,0,1,.381.025c.369.05.431.229.459.6.025.344.025.648.025,2.324ZM95.562,409c-.037,0-.05-.025-.037-.077l1.041-2.96c.065-.164.127-.164.192,0l1.106,2.96c.012.05.012.077-.037.077Zm-1.615,2.262c-.217.545-.431.927-.939.992a3.206,3.206,0,0,1-.332.025.1.1,0,0,0-.1.09c0,.065.077.09.217.09.459,0,1.016-.037,1.131-.037s.738.037,1,.037c.1,0,.164-.025.164-.09,0-.05-.025-.09-.115-.09h-.1c-.192,0-.381-.078-.381-.291a2.207,2.207,0,0,1,.164-.725l.635-1.729a.119.119,0,0,1,.115-.09h2.578c.065,0,.077.012.1.062l1,2.479a.2.2,0,0,1-.1.291c-.05.025-.077.025-.077.077s.177.062.394.077c.775.025,1.6.025,1.766.025.127,0,.254-.025.254-.09s-.077-.09-.139-.09a1.484,1.484,0,0,1-.443-.065c-.242-.077-.545-.217-.955-1.181-.685-1.64-2.476-6.1-2.681-6.558-.115-.242-.152-.394-.267-.394-.077,0-.127.062-.267.418Zm-6.709-6.406a.134.134,0,0,1,.09-.127,4.909,4.909,0,0,1,.8-.065,1.867,1.867,0,0,1,1.931,2.123,1.925,1.925,0,0,1-.672,1.652,1.468,1.468,0,0,1-.84.192,3.859,3.859,0,0,1-1.233-.164.164.164,0,0,1-.077-.14v-3.471Zm-.964,4.46a21.494,21.494,0,0,1-.065,2.337c-.05.316-.077.521-.291.573a1.65,1.65,0,0,1-.344.05.088.088,0,0,0-.09.09c0,.065.062.09.177.09.344,0,1.094-.037,1.106-.037.05,0,.762.037,1.373.037.127,0,.177-.037.177-.09a.08.08,0,0,0-.09-.09,4.187,4.187,0,0,1-.5-.05c-.344-.05-.406-.254-.443-.573-.05-.443-.05-1.283-.05-2.324v-.254c0-.065.025-.09.077-.09l1.422.025a.167.167,0,0,1,.152.065c.242.291.738.992,1.206,1.574a5.729,5.729,0,0,0,1.525,1.59,2.251,2.251,0,0,0,1.193.217h.7c.2,0,.267-.025.267-.09a.1.1,0,0,0-.1-.09,2.123,2.123,0,0,1-.394-.037,2.045,2.045,0,0,1-1.246-.75c-.648-.673-1.422-1.652-2.337-2.8a3.158,3.158,0,0,0,1.373-2.464,1.9,1.9,0,0,0-.775-1.475,3.669,3.669,0,0,0-2.083-.471c-.344,0-1.283.025-1.4.025-.065,0-.812-.025-1.323-.025-.127,0-.177.025-.177.09a.108.108,0,0,0,.09.09,3.676,3.676,0,0,1,.381.025c.369.05.431.229.459.6.025.344.025.648.025,2.324Zm-4.385,2.25c0,.2-.09.254-.229.332a2.819,2.819,0,0,1-1.209.2,3.983,3.983,0,0,1-2.857-1.131,4.306,4.306,0,0,1-1.181-2.987,3.356,3.356,0,0,1,1.106-2.718,3.549,3.549,0,0,1,2.337-.7,3.185,3.185,0,0,1,2.578.84,1.623,1.623,0,0,1,.254.713c0,.1.012.164.077.164s.127-.05.127-.229c0-1.082.062-1.373.062-1.525,0-.05-.025-.1-.139-.1a4.716,4.716,0,0,1-.9-.115,9.477,9.477,0,0,0-1.714-.177,5.631,5.631,0,0,0-2.972.685,4.041,4.041,0,0,0-1.869,3.545,4.13,4.13,0,0,0,1.333,3.074,6.307,6.307,0,0,0,6.062.673c.139-.078.152-.09.152-.586v-1.206c0-.459,0-.775.012-1.119.025-.381.115-.545.418-.6a1.281,1.281,0,0,1,.279-.025.108.108,0,0,0,.09-.09c0-.077-.05-.09-.177-.09-.344,0-1.041.025-1.094.025s-.812-.025-1.32-.025c-.127,0-.177.013-.177.09a.109.109,0,0,0,.09.09,3.711,3.711,0,0,1,.381.025c.459.09.483.217.483,1.094v1.866Z" transform="translate(-52.02 -278.83)"/>
  </g>
</svg>
