<?xml version="1.0" encoding="utf-8"?>
<!-- Generator: Adobe Illustrator 15.0.0, SVG Export Plug-In . SVG Version: 6.00 Build 0)  -->
<!DOCTYPE svg PUBLIC "-//W3C//DTD SVG 1.1//EN" "http://www.w3.org/Graphics/SVG/1.1/DTD/svg11.dtd">
<svg version="1.1" id="Layer_1" xmlns="http://www.w3.org/2000/svg" xmlns:xlink="http://www.w3.org/1999/xlink" x="0px" y="0px"
	 width="32px" height="32px" viewBox="0 0 32 32" enable-background="new 0 0 32 32" xml:space="preserve">
<circle fill="#FFFFFF" cx="16" cy="16.001" r="16"/>
<path d="M21.05,10.232c-0.894-0.496-2.018-0.173-2.514,0.718l-3.423,6.167l-1.963-1.961c-0.721-0.721-1.889-0.721-2.609,0
	c-0.721,0.721-0.721,1.889,0,2.609l3.693,3.691C14.581,21.805,15.052,22,15.538,22c0.085,0,0.171-0.008,0.255-0.02
	c0.574-0.082,1.078-0.424,1.359-0.932l4.615-8.307C22.264,11.852,21.939,10.729,21.05,10.232L21.05,10.232z"/>
</svg>
